<?xml version="1.0" encoding="UTF-8" standalone="no"?>
<!-- Created with Inkscape (http://www.inkscape.org/) -->

<svg
   xmlns:dc="http://purl.org/dc/elements/1.1/"
   xmlns:cc="http://creativecommons.org/ns#"
   xmlns:rdf="http://www.w3.org/1999/02/22-rdf-syntax-ns#"
   xmlns:svg="http://www.w3.org/2000/svg"
   xmlns="http://www.w3.org/2000/svg"
   xmlns:xlink="http://www.w3.org/1999/xlink"
   xmlns:sodipodi="http://sodipodi.sourceforge.net/DTD/sodipodi-0.dtd"
   xmlns:inkscape="http://www.inkscape.org/namespaces/inkscape"
   width="48"
   height="48"
   id="svg2"
   version="1.1"
   inkscape:version="0.48.0 r9654"
   sodipodi:docname="menu_calendar_book.svg"
   inkscape:export-filename="/home/andreas/workspace/lichtstrahlen/res/drawable/menu_calendar.png"
   inkscape:export-xdpi="90"
   inkscape:export-ydpi="90">
  <defs
     id="defs4">
    <linearGradient
       id="linearGradient3757">
      <stop
         style="stop-color:#a3a3a3;stop-opacity:1;"
         offset="0"
         id="stop3759" />
      <stop
         style="stop-color:#787878;stop-opacity:1;"
         offset="1"
         id="stop3761" />
    </linearGradient>
    <linearGradient
       inkscape:collect="always"
       xlink:href="#linearGradient3757"
       id="linearGradient3879"
       gradientUnits="userSpaceOnUse"
       gradientTransform="matrix(0,0.87061775,-1,0,1055.5997,4.643778)"
       x1="4.8032999"
       y1="1031.5997"
       x2="44.803299"
       y2="1031.5997" />
    <linearGradient
       inkscape:collect="always"
       xlink:href="#linearGradient3757"
       id="linearGradient3914"
       x1="23.030304"
       y1="8.2915401"
       x2="23.030304"
       y2="44.000896"
       gradientUnits="userSpaceOnUse" />
  </defs>
  <sodipodi:namedview
     id="base"
     pagecolor="#ffffff"
     bordercolor="#666666"
     borderopacity="1.0"
     inkscape:pageopacity="0.0"
     inkscape:pageshadow="2"
     inkscape:zoom="5.6568542"
     inkscape:cx="58.363568"
     inkscape:cy="45.419994"
     inkscape:document-units="px"
     inkscape:current-layer="g3051"
     showgrid="false"
     borderlayer="true"
     inkscape:window-width="1280"
     inkscape:window-height="781"
     inkscape:window-x="0"
     inkscape:window-y="16"
     inkscape:window-maximized="1" />
  <metadata
     id="metadata7">
    <rdf:RDF>
      <cc:Work
         rdf:about="">
        <dc:format>image/svg+xml</dc:format>
        <dc:type
           rdf:resource="http://purl.org/dc/dcmitype/StillImage" />
        <dc:title></dc:title>
      </cc:Work>
    </rdf:RDF>
  </metadata>
  <g
     inkscape:label="Ebene 1"
     inkscape:groupmode="layer"
     id="layer1"
     transform="translate(0,-1004.3622)">
    <g
       id="g3051"
       transform="translate(0,-0.28993702)">
      <path
         style="fill:url(#linearGradient3879);fill-opacity:1;stroke:none;opacity:1"
         d="M 6.46875 9.25 C 5.36075 9.25 4.46875 10.004106 4.46875 10.96875 L 4.46875 41.53125 C 4.46875 42.495894 5.36075 43.25 6.46875 43.25 L 41.53125 43.25 C 42.024523 43.25 42.464495 43.09471 42.8125 42.84375 L 29.96875 42.84375 C 36.984735 41.78835 35.167577 36.3056 34.59375 33.125 C 38.755555 34.2346 42.004269 35.5115 43.1875 31.5625 L 43.1875 42.5 C 43.402727 42.226137 43.53125 41.892992 43.53125 41.53125 L 43.53125 10.96875 C 43.53125 10.004106 42.63925 9.25 41.53125 9.25 L 36.375 9.25 C 36.424609 9.8537704 36.492577 10.394733 36.59375 10.75 C 36.653493 10.959824 36.695127 11.039147 36.71875 11.09375 C 37.027598 11.368501 37.21875 11.772861 37.21875 12.21875 C 37.21875 12.953876 36.697981 13.55906 36 13.6875 L 36 13.75 C 35.918224 13.75 35.857344 13.728151 35.78125 13.71875 C 35.760014 13.716127 35.739546 13.722046 35.71875 13.71875 C 35.09743 13.71875 34.571462 13.350873 34.34375 12.8125 C 34.071581 12.4082 33.910332 11.98455 33.78125 11.53125 C 33.593541 10.872068 33.516444 10.082208 33.46875 9.25 L 24.375 9.25 C 24.424609 9.8537704 24.492577 10.394733 24.59375 10.75 C 24.653493 10.959824 24.695127 11.039147 24.71875 11.09375 C 25.027598 11.368501 25.21875 11.772861 25.21875 12.21875 C 25.21875 12.953876 24.697981 13.55906 24 13.6875 L 24 13.75 C 23.918224 13.75 23.857344 13.728151 23.78125 13.71875 C 23.760014 13.716127 23.739546 13.722046 23.71875 13.71875 C 23.09743 13.71875 22.571462 13.350873 22.34375 12.8125 C 22.071581 12.4082 21.910332 11.98455 21.78125 11.53125 C 21.593541 10.872068 21.516444 10.082208 21.46875 9.25 L 12.375 9.25 C 12.424609 9.8537704 12.492577 10.394733 12.59375 10.75 C 12.653493 10.959824 12.695127 11.039147 12.71875 11.09375 C 13.027598 11.368501 13.21875 11.772861 13.21875 12.21875 C 13.21875 12.953876 12.697981 13.55906 12 13.6875 L 12 13.75 C 11.918224 13.75 11.857344 13.728151 11.78125 13.71875 C 11.760014 13.716127 11.739546 13.722046 11.71875 13.71875 C 11.09743 13.71875 10.571462 13.350873 10.34375 12.8125 C 10.071581 12.4082 9.910332 11.98455 9.78125 11.53125 C 9.5935408 10.872068 9.5164436 10.082208 9.46875 9.25 L 6.46875 9.25 z M 9 16.84375 L 11.75 16.84375 C 12.920717 16.84375 13.875 17.675926 13.875 18.71875 L 13.875 20.96875 C 13.875 22.011574 12.920717 22.84375 11.75 22.84375 L 9 22.84375 C 7.829283 22.84375 6.875 22.011574 6.875 20.96875 L 6.875 18.71875 C 6.875 17.675926 7.829283 16.84375 9 16.84375 z M 18.0625 16.84375 L 20.84375 16.84375 C 22.014467 16.84375 22.96875 17.675926 22.96875 18.71875 L 22.96875 20.96875 C 22.96875 22.011574 22.014467 22.84375 20.84375 22.84375 L 18.0625 22.84375 C 16.891783 22.84375 15.96875 22.011574 15.96875 20.96875 L 15.96875 18.71875 C 15.96875 17.675926 16.891783 16.84375 18.0625 16.84375 z M 27.15625 16.84375 L 29.9375 16.84375 C 31.108217 16.84375 32.03125 17.675926 32.03125 18.71875 L 32.03125 20.96875 C 32.03125 22.011574 31.108217 22.84375 29.9375 22.84375 L 27.15625 22.84375 C 25.985533 22.84375 25.03125 22.011574 25.03125 20.96875 L 25.03125 18.71875 C 25.03125 17.675926 25.985533 16.84375 27.15625 16.84375 z M 36.25 16.84375 L 39 16.84375 C 40.170717 16.84375 41.125 17.675926 41.125 18.71875 L 41.125 20.96875 C 41.125 22.011574 40.170717 22.84375 39 22.84375 L 36.25 22.84375 C 35.079283 22.84375 34.125 22.011574 34.125 20.96875 L 34.125 18.71875 C 34.125 17.675926 35.079283 16.84375 36.25 16.84375 z M 9 24.84375 L 11.75 24.84375 C 12.920717 24.84375 13.875 25.675926 13.875 26.71875 L 13.875 28.96875 C 13.875 30.011574 12.920717 30.84375 11.75 30.84375 L 9 30.84375 C 7.829283 30.84375 6.875 30.011574 6.875 28.96875 L 6.875 26.71875 C 6.875 25.675926 7.829283 24.84375 9 24.84375 z M 18.0625 24.84375 L 20.84375 24.84375 C 22.014467 24.84375 22.96875 25.675926 22.96875 26.71875 L 22.96875 28.96875 C 22.96875 30.011574 22.014467 30.84375 20.84375 30.84375 L 18.0625 30.84375 C 16.891783 30.84375 15.96875 30.011574 15.96875 28.96875 L 15.96875 26.71875 C 15.96875 25.675926 16.891783 24.84375 18.0625 24.84375 z M 27.15625 24.84375 L 29.9375 24.84375 C 31.108217 24.84375 32.03125 25.675926 32.03125 26.71875 L 32.03125 28.96875 C 32.03125 30.011574 31.108217 30.84375 29.9375 30.84375 L 27.15625 30.84375 C 25.985533 30.84375 25.03125 30.011574 25.03125 28.96875 L 25.03125 26.71875 C 25.03125 25.675926 25.985533 24.84375 27.15625 24.84375 z M 36.25 24.84375 L 39 24.84375 C 40.170717 24.84375 41.125 25.675926 41.125 26.71875 L 41.125 28.96875 C 41.125 30.011574 40.170717 30.84375 39 30.84375 L 36.25 30.84375 C 35.079283 30.84375 34.125 30.011574 34.125 28.96875 L 34.125 26.71875 C 34.125 25.675926 35.079283 24.84375 36.25 24.84375 z M 9 32.84375 L 11.75 32.84375 C 12.920717 32.84375 13.875 33.675926 13.875 34.71875 L 13.875 36.96875 C 13.875 38.011574 12.920717 38.84375 11.75 38.84375 L 9 38.84375 C 7.829283 38.84375 6.875 38.011574 6.875 36.96875 L 6.875 34.71875 C 6.875 33.675926 7.829283 32.84375 9 32.84375 z M 18.0625 32.84375 L 20.84375 32.84375 C 22.014467 32.84375 22.96875 33.675926 22.96875 34.71875 L 22.96875 36.96875 C 22.96875 38.011574 22.014467 38.84375 20.84375 38.84375 L 18.0625 38.84375 C 16.891783 38.84375 15.96875 38.011574 15.96875 36.96875 L 15.96875 34.71875 C 15.96875 33.675926 16.891783 32.84375 18.0625 32.84375 z M 27.15625 32.84375 L 29.9375 32.84375 C 31.108217 32.84375 32.03125 33.675926 32.03125 34.71875 L 32.03125 36.96875 C 32.03125 38.011574 31.108217 38.84375 29.9375 38.84375 L 27.15625 38.84375 C 25.985533 38.84375 25.03125 38.011574 25.03125 36.96875 L 25.03125 34.71875 C 25.03125 33.675926 25.985533 32.84375 27.15625 32.84375 z "
         transform="translate(0,1004.6521)"
         id="rect2985" />
      <path
         style="fill:none;stroke:url(#linearGradient3914);stroke-width:1.86600000000000010;stroke-miterlimit:4;stroke-dasharray:none;stroke-linecap:butt"
         d="m 9.4375,9.21875 -2.96875,0 c -1.108,0 -2,0.785356 -2,1.75 l 0,30.53125 c 0,0.964644 0.892,1.75 2,1.75 l 35.0625,0 c 1.108,0 2,-0.785356 2,-1.75 l 0,-30.53125 c 0,-0.964644 -0.892,-1.75 -2,-1.75 l -5.125,0 m -2.96875,0 -9.03125,0 m -2.96875,0 -9.03125,0"
         transform="translate(0,1004.6521)"
         id="rect3800"
         inkscape:connector-curvature="0"
         sodipodi:nodetypes="cssssssssccccc" />
      <g
         id="g3850"
         transform="translate(-2,0)"
         style="stroke:#ffffff;fill:none;stroke-opacity:1;stroke-width:2.9;stroke-miterlimit:4;stroke-dasharray:none" />
      <g
         style="stroke:#a3a3a3;fill:none;stroke-opacity:1;stroke-linecap:round"
         transform="translate(-2,0)"
         id="g3807">
        <path
           style="fill:none;stroke:#a3a3a3;stroke-width:1.06724905999999997;stroke-miterlimit:4;stroke-opacity:1;stroke-linecap:round"
           d="m 13.992,1016.9581 c -0.625521,0 -1.132606,-1.7808 -1.132606,-3.9775 0,-2.1967 0.507085,-3.9775 1.132606,-3.9775 0.625522,0 1.132607,1.7808 1.132607,3.9775"
           id="path2987"
           inkscape:connector-curvature="0"
           sodipodi:nodetypes="cssc" />
        <path
           sodipodi:nodetypes="cssc"
           inkscape:connector-curvature="0"
           id="path3803"
           d="m 25.992,1016.9581 c -0.625521,0 -1.132606,-1.7808 -1.132606,-3.9775 0,-2.1967 0.507085,-3.9775 1.132606,-3.9775 0.625522,0 1.132607,1.7808 1.132607,3.9775"
           style="fill:none;stroke:#a3a3a3;stroke-width:1.06724905999999997;stroke-miterlimit:4;stroke-opacity:1;stroke-linecap:round" />
        <path
           style="fill:none;stroke:#a3a3a3;stroke-width:1.06724905999999997;stroke-miterlimit:4;stroke-opacity:1;stroke-linecap:round"
           d="m 37.992,1016.9581 c -0.625521,0 -1.132606,-1.7808 -1.132606,-3.9775 0,-2.1967 0.507085,-3.9775 1.132606,-3.9775 0.625522,0 1.132607,1.7808 1.132607,3.9775"
           id="path3805"
           inkscape:connector-curvature="0"
           sodipodi:nodetypes="cssc" />
      </g>
      <g
         id="g3882"
         transform="translate(-2,0)"
         style="stroke:#a3a3a3;fill:none;stroke-opacity:1;stroke-linecap:round;stroke-width:3;stroke-miterlimit:4;stroke-dasharray:none" />
    </g>
  </g>
</svg>
