<?xml version="1.0" encoding="UTF-8" standalone="no"?>
<!-- Created with Inkscape (http://www.inkscape.org/) -->

<svg
   xmlns:dc="http://purl.org/dc/elements/1.1/"
   xmlns:cc="http://creativecommons.org/ns#"
   xmlns:rdf="http://www.w3.org/1999/02/22-rdf-syntax-ns#"
   xmlns:svg="http://www.w3.org/2000/svg"
   xmlns="http://www.w3.org/2000/svg"
   xmlns:xlink="http://www.w3.org/1999/xlink"
   xmlns:sodipodi="http://sodipodi.sourceforge.net/DTD/sodipodi-0.dtd"
   xmlns:inkscape="http://www.inkscape.org/namespaces/inkscape"
   width="48"
   height="48"
   id="svg2994"
   version="1.1"
   inkscape:version="0.48.0 r9654"
   sodipodi:docname="menu_list_src.svg"
   inkscape:export-filename="/home/andreas/workspace/lichtstrahlen/res/drawable/menu_list.png"
   inkscape:export-xdpi="90"
   inkscape:export-ydpi="90">
  <defs
     id="defs2996">
    <linearGradient
       id="linearGradient3772">
      <stop
         style="stop-color:#787878;stop-opacity:1;"
         offset="0"
         id="stop3774" />
      <stop
         style="stop-color:#a3a3a3;stop-opacity:1;"
         offset="1"
         id="stop3776" />
    </linearGradient>
    <linearGradient
       inkscape:collect="always"
       xlink:href="#linearGradient3772"
       id="linearGradient3937"
       x1="21.672466"
       y1="42.957642"
       x2="21.672466"
       y2="4.9630008"
       gradientUnits="userSpaceOnUse" />
  </defs>
  <sodipodi:namedview
     id="base"
     pagecolor="#ffffff"
     bordercolor="#666666"
     borderopacity="1.0"
     inkscape:pageopacity="0.0"
     inkscape:pageshadow="2"
     inkscape:zoom="8"
     inkscape:cx="16.916015"
     inkscape:cy="29.535525"
     inkscape:document-units="px"
     inkscape:current-layer="layer1"
     showgrid="false"
     inkscape:window-width="1280"
     inkscape:window-height="781"
     inkscape:window-x="0"
     inkscape:window-y="16"
     inkscape:window-maximized="1" />
  <metadata
     id="metadata2999">
    <rdf:RDF>
      <cc:Work
         rdf:about="">
        <dc:format>image/svg+xml</dc:format>
        <dc:type
           rdf:resource="http://purl.org/dc/dcmitype/StillImage" />
        <dc:title></dc:title>
      </cc:Work>
    </rdf:RDF>
  </metadata>
  <g
     inkscape:label="Ebene 1"
     inkscape:groupmode="layer"
     id="layer1"
     transform="translate(0,-1004.3622)">
    <path
       style="fill:url(#linearGradient3937);fill-opacity:1;stroke:none"
       d="M 10.03125,5 C 8.3112751,5 7,6.5187 7,8.25 l 0,31.5 C 7,41.4813 8.3112751,43 10.03125,43 l 27.9375,0 C 39.688725,43 41,41.4813 41,39.75 L 41,8.25 C 41,6.5187 39.688725,5 37.96875,5 z m 1.625,4.5 5,0 0,5 -5,0 z m 7.65625,1.5 17.03125,0 0,2 -17.03125,0 z m -7.65625,6.5 5,0 0,5 -5,0 z m 7.65625,1.5 17.03125,0 0,2 -17.03125,0 z m -7.65625,6.5 5,0 0,5 -5,0 z m 7.65625,1.5 17.03125,0 0,2 -17.03125,0 z m -7.65625,6.5 5,0 0,5 -5,0 z m 7.65625,1.5 17.03125,0 0,2 -17.03125,0 z"
       transform="translate(0,1004.3622)"
       id="path3928"
       inkscape:connector-curvature="0"
       sodipodi:nodetypes="ssssssssscccccccccccccccccccccccccccccccccccccccc" />
  </g>
</svg>
